<?xml version="1.0" encoding="UTF-8"?>
<svg id="Layer_1" data-name="Layer 1" xmlns="http://www.w3.org/2000/svg" viewBox="0 0 64 64">
  <defs>
    <style>
      .cls-1 {
        fill: #652410;
      }

      .cls-1, .cls-2, .cls-3, .cls-4 {
        stroke-width: 0px;
      }

      .cls-2 {
        fill: #f6edde;
      }

      .cls-3 {
        fill: #661e02;
      }

      .cls-4 {
        fill: #f6ecde;
      }

      .cls-5 {
        fill: #671f02;
        font-family: Pristina-Regular, Pristina;
        font-size: 16.25px;
      }
    </style>
  </defs>
  <circle class="cls-4" cx="32" cy="32" r="32"/>
  <circle class="cls-3" cx="32" cy="32" r="30.01"/>
  <circle class="cls-2" cx="32.37" cy="32.13" r="28.54"/>
  <text class="cls-5" transform="translate(21.12 21.68) scale(1.26 1)"><tspan x="0" y="0">La </tspan><tspan x="-10.05" y="15">Bunica</tspan></text>
  <path class="cls-1" d="m15.55,41.84l.15-.07h.16l.14.07.34.24.55.32.64.41.87.49.55.35.47.29.43.24.41.14.22.04h.39l.19.14.4.34.37.22.05-.05s.03-.18,0-.2-.15-.27-.15-.27l-.2-.18-.2-.07-.3-.18-.28-.23-.24-.36-.07-.32-.03-.42.03-.32.18-.45.26-.05.41.18.33.29.32.45.15.44.08.3v.54l-.07.34-.06.11.02.29.05.2.22.16.58.17.5.22.32.18.15-.14.13-.05v-.64l.06-.2.14-.49.32-.38.34-.18.4.05.41-.34s.75-.33,1.22-.11.67.37.67.37l.14.19v.34l-.07.47-.34.37-.5.39s-.93.68-1.96.66l-.03.12.92.2s.81.2.84.2,1.1.25,1.1.25l.79.11s.62.07.64.05.34-.17.34-.17c0,0,.16-.5.17-.52s.4-.7.43-.76.51-.74.55-.81.43-.5.43-.5l.78-.71s.68-.32.71-.34.43-.11.46-.12.38.03.38.03l.24.21s.1.32.06.39-.27.65-.27.65c0,0-.37.8-.39.83s-.42.58-.44.6-.55.44-.58.45-.91.49-.91.49c0,0-.64.28-.67.28s-.34.07-.34.07c0,0-.09.05-.02.07s.22,0,.22,0h.88s0,.05,0,.05l.97-.05s1.27-.11,1.29-.12.49-.26.53-.3.44-.53.44-.53c0,0,.09-.53.11-.58s.34-.8.34-.83.35-.6.36-.62.63-.63.63-.63c0,0,.62-.4.64-.41s.74-.25.74-.25c0,0,.32-.05.36-.05s.41.04.41.04l.18.26s.03.47,0,.51-.16.47-.16.51-.31.62-.32.66-.3.35-.33.37-.47.43-.47.43l-.44.34s-.45.27-.47.27-.48.15-.48.15l-.53.16s-.15.05-.17.07-.28.2-.28.2l-.34.14.02.11s.21-.04.23-.04.7-.09.7-.09c0,0,.57-.09.65-.09s.73-.12.76-.13,1.02-.22,1.02-.22l.72-.26s.47-.25.49-.29.38-.44.4-.47.09-.2.09-.25v-.53l.04-.32.27-.64.28-.6s.37-.55.4-.58.64-.68.64-.68l.42-.35s.52-.22.62.14,0,.53,0,.53c0,0-.12.54-.14.58s-.19.6-.21.6-.37.6-.37.6l-.46.6s-.51.49-.55.53-.45.35-.47.35-.15.11-.15.11c0,0-.12.18-.14.19s-.07.08-.07.08l.76-.18.9-.39s1.31-.56,1.75-1.46.6-1.4.6-1.4l.52-.64.6-.43.26-.12s.45-.18.47.32-1.54,2.21-1.54,2.21l-.49.47-.22.19.06.08.67-.27.37-.17s.16.03.18,0,.68-.41.7-.46.6-.48.6-.48l.83-.54.71-.36.64-.19.63-.22.45-.11.28-.02.16.08v.21s-.17.32-.25.39-.35.41-.35.41l-.51.6-.49.49s-.48.43-.48.43l-.49.3s-.57.24-.6.24-.65.04-.65.04c0,0-.54.03-.73-.03s-.45-.11-.45-.11l-.22-.17-1.97.99v.13s.41.04.43.04.83,0,.83,0h1.02s.57.25.57.25l.58.35.26.21-.08.3s-.32.24-.35.24-.58.18-.6.18-.78-.02-.8,0-.59-.06-.63-.09-.5-.29-.5-.29c0,0-.39-.31-.41-.33s-.32-.39-.32-.39l-.22-.21s-.19-.09-.23-.1-.35.02-.37.04-.53.23-.53.23c0,0-.49.16-.53.16s-.54.2-.54.2l-.42.12v.07s.21.01.24.03,1.04.05,1.08.03,1.04.03,1.06.03.82.14.82.14l.64.42s.42.29.44.32.54.55-.34.91-2.17,0-2.17,0l-.97-.53-.55-.53-.24-.3-.22-.22-.38-.16-.35.14s-.74.17-.76.17-1.15.29-1.15.29c0,0-.58.12-.64.12s-.35-.02-.39-.03-.49,0-.52,0-.49.11-.49.11l-.26.02-.05.1.09.07s.29.05.36.05.58-.06.68-.07.78-.03.81-.03.47.16.47.16l.9.3.65.26.76.41.48.34.46.35.39.39s.51.53-.35.69-2.77-.22-2.77-.22l-1.08-.57-.65-.46-.64-.55-.37-.46s-.13-.57-.99-.54-1.62.04-1.65.04-1.44-.02-1.44-.02c0,0-.35-.02-.02.13s.74.28.76.28,1,.4,1.03.41.87.49.87.49l.49.64.35.56.16.5s.05.41.05.43-.06.5-.06.5l-.13.34-.43.24s-.64-.02-.66-.04-.64-.46-.64-.46l-.66-.72-.55-.81-.41-.6-.39-.66-.24-.37-.05-.13-.18-.35s-.18-.29-.28-.34-.67-.2-.7-.21-.91-.14-.95-.15-.68-.12-.68-.12l-.87-.25-.36-.02h-.77s.32.24.32.24l.64.38.77.47.39.37.11.28-.07.14.26.18.32.39.17.18s.21.53-.19.6-1.67-.32-1.67-.32l-.68-.47h-.1s-.11.05-.11.05l-.66-.02s-.3-.09-.33-.1-.74.02-.78.02-.33-.07-.37-.1-.34.03-.49-.28-.16-.91-.16-.91v-.12s-.93-.16-.93-.16l-.38-.15s-.47.02-.49-.01.04-.22.06-.23.62-.16.71-.19.68-.16.7-.18.95-.24.95-.24l.87-.04s.31-.05.33-.05.07-.17.07-.17c0,0-.42-.07-.46-.1s-.58-.24-.62-.28-.63-.26-.63-.26l-.29-.07s-.22-.23-.72-.09-1.05.22-1.05.22c0,0-1.66.19-1.94-.5,0,0,.23-.64,1.29-.5l.2.03s.03-.1,0-.11-.97-.44-.97-.44l-.95-.58s-.81-.58-.81-.62-.68-.58-.68-.58l-.53-.49s-.34-.27-.34-.29-.04-.12-.04-.12l.04-.1Z"/>
</svg>