<?xml version="1.0" encoding="UTF-8"?>
<svg id="Layer_1" data-name="Layer 1" xmlns="http://www.w3.org/2000/svg" viewBox="0 0 32 32">
  <defs>
    <style>
      .cls-1 {
        fill: #652410;
      }

      .cls-1, .cls-2, .cls-3, .cls-4 {
        stroke-width: 0px;
      }

      .cls-2 {
        fill: #f6edde;
      }

      .cls-3 {
        fill: #661e02;
      }

      .cls-5 {
        fill: #671f02;
        font-family: Pristina-Regular, Pristina;
        font-size: 8.13px;
      }

      .cls-4 {
        fill: #f6ecde;
      }
    </style>
  </defs>
  <line class="cls-2" x1="25.89" y1="9.07" x2="25.99" y2="9.12"/>
  <g>
    <circle class="cls-4" cx="16" cy="16" r="16"/>
    <circle class="cls-3" cx="16" cy="16" r="15"/>
    <circle class="cls-2" cx="16.18" cy="16.07" r="14.27"/>
    <text class="cls-5" transform="translate(10.56 10.84) scale(1.26 1)"><tspan x="0" y="0">La </tspan><tspan x="-5.02" y="7.5">Bunica</tspan></text>
    <path class="cls-1" d="m7.77,20.92l.08-.04h.08l.07.04.17.12.27.16.32.2.44.25.27.17.23.14.21.12.21.07.11.02h.2l.1.07.2.17.19.11.03-.03s.01-.09,0-.1-.08-.13-.08-.13l-.1-.09-.1-.03-.15-.09-.14-.11-.12-.18-.04-.16-.02-.21.02-.16.09-.22.13-.03.2.09.16.14.16.22.08.22.04.15v.27l-.04.17-.03.05v.14s.03.1.03.1l.11.08.29.09.25.11.16.09.08-.07.07-.03v-.32l.03-.1.07-.25.16-.19.17-.09.2.02.21-.17s.37-.17.61-.06.34.18.34.18l.07.1v.17l-.03.24-.17.19-.25.19s-.47.34-.98.33v.06s.45.1.45.1c0,0,.41.1.42.1s.55.12.55.12l.39.05s.31.04.32.02.17-.09.17-.09c0,0,.08-.25.09-.26s.2-.35.21-.38.26-.37.28-.4.22-.25.22-.25l.39-.35s.34-.16.35-.17.21-.06.23-.06.19.02.19.02l.12.11s.05.16.03.19-.13.32-.13.32c0,0-.18.4-.19.41s-.21.29-.22.3-.28.22-.29.23-.46.24-.46.24c0,0-.32.14-.34.14s-.17.04-.17.04c0,0-.05.02,0,.04s.11,0,.11,0h.44s0,.02,0,.02l.49-.03s.64-.06.65-.06.24-.13.26-.15.22-.27.22-.27c0,0,.05-.26.06-.29s.17-.4.17-.42.18-.3.18-.31.32-.32.32-.32c0,0,.31-.2.32-.21s.37-.12.37-.12c0,0,.16-.02.18-.02s.2.02.2.02l.09.13s.01.23,0,.26-.08.24-.08.26-.15.31-.16.33-.15.18-.16.18-.23.22-.23.22l-.22.17s-.22.13-.24.13-.24.08-.24.08l-.26.08s-.08.03-.09.03-.14.1-.14.1l-.17.07v.05s.11-.02.12-.02.35-.05.35-.05c0,0,.28-.04.33-.04s.36-.06.38-.07.51-.11.51-.11l.36-.13s.23-.12.25-.14.19-.22.2-.23.05-.1.05-.12v-.27l.02-.16.13-.32.14-.3s.18-.27.2-.29.32-.34.32-.34l.21-.17s.26-.11.31.07,0,.27,0,.27c0,0-.06.27-.07.29s-.1.3-.11.3-.19.3-.19.3l-.23.3s-.25.24-.27.26-.23.17-.24.17-.08.06-.08.06c0,0-.06.09-.07.1s-.04.04-.04.04l.38-.09.45-.2s.66-.28.88-.73.3-.7.3-.7l.26-.32.3-.21.13-.06s.23-.09.24.16-.77,1.1-.77,1.1l-.24.24-.11.09.03.04.34-.13.18-.08s.08.02.09,0,.34-.21.35-.23.3-.24.3-.24l.42-.27.35-.18.32-.1.32-.11.22-.06h.14s.08.03.08.03v.11s-.09.16-.12.2-.18.2-.18.2l-.26.3-.24.24s-.24.21-.24.21l-.25.15s-.29.12-.3.12-.33.02-.33.02c0,0-.27.02-.36-.02s-.23-.05-.23-.05l-.11-.09-.99.5v.07s.2.02.22.02.42,0,.42,0h.51s.29.12.29.12l.29.17.13.11-.04.15s-.16.12-.18.12-.29.09-.3.09-.39,0-.4,0-.3-.03-.32-.04-.25-.14-.25-.14c0,0-.2-.15-.2-.16s-.16-.2-.16-.2l-.11-.11s-.1-.05-.11-.05-.18,0-.18.02-.26.11-.26.11c0,0-.25.08-.27.08s-.27.1-.27.1l-.21.06v.04s.11,0,.12.01.52.03.54.02.52.02.53.02.41.07.41.07l.32.21s.21.14.22.16.27.27-.17.45-1.09,0-1.09,0l-.49-.26-.28-.26-.12-.15-.11-.11-.19-.08-.17.07s-.37.09-.38.09-.57.14-.57.14c0,0-.29.06-.32.06s-.18,0-.19-.01-.25,0-.26,0-.25.05-.25.05h-.13s-.02.06-.02.06l.04.03s.14.03.18.03.29-.03.34-.04.39-.01.4-.01.24.08.24.08l.45.15.33.13.38.2.24.17.23.17.19.19s.25.27-.17.34-1.38-.11-1.38-.11l-.54-.28-.33-.23-.32-.28-.18-.23s-.07-.29-.5-.27-.81.02-.82.02-.72,0-.72,0c0,0-.18,0,0,.07s.37.14.38.14.5.2.52.21.43.24.43.24l.24.32.17.28.08.25s.02.2.02.21-.03.25-.03.25l-.07.17-.21.12s-.32,0-.33-.02-.32-.23-.32-.23l-.33-.36-.27-.4-.2-.3-.19-.33-.12-.19-.02-.07-.09-.18s-.09-.14-.14-.17-.34-.1-.35-.11-.45-.07-.47-.08-.34-.06-.34-.06l-.43-.12h-.18s-.38,0-.38,0l.16.11.32.19.38.23.19.19.06.14-.03.07.13.09.16.19.09.09s.11.27-.1.3-.83-.16-.83-.16l-.34-.23h-.05s-.06.02-.06.02h-.33s-.15-.06-.16-.06-.37,0-.39,0-.16-.03-.19-.05-.17.01-.25-.14-.08-.46-.08-.46v-.06s-.46-.08-.46-.08l-.19-.08s-.24,0-.24,0,.02-.11.03-.11.31-.08.35-.1.34-.08.35-.09.47-.12.47-.12l.44-.02s.15-.03.16-.03.03-.09.03-.09c0,0-.21-.03-.23-.05s-.29-.12-.31-.14-.32-.13-.32-.13l-.14-.03s-.11-.11-.36-.04-.53.11-.53.11c0,0-.83.1-.97-.25,0,0,.11-.32.65-.25l.1.02s.02-.05,0-.06-.48-.22-.48-.22l-.48-.29s-.41-.29-.41-.31-.34-.29-.34-.29l-.27-.25s-.17-.13-.17-.14-.02-.06-.02-.06l.02-.05Z"/>
  </g>
</svg>